<svg xmlns="http://www.w3.org/2000/svg" width="153.637" height="25.701" viewBox="0 0 153.637 25.701">
  <g id="Grupo_89" data-name="Grupo 89" transform="translate(-159.715 -1054.299)">
    <g id="social_share" data-name="social share" transform="translate(-946.285 422.697)">
      <g id="share" transform="translate(1106 633.132)">
        <path id="Caminho_3" data-name="Caminho 3" d="M20.106,14.216a4.049,4.049,0,0,0-3.183,1.562L10,12.238a4.049,4.049,0,0,0,.156-1.055,4.016,4.016,0,0,0-.185-1.143l6.891-3.523a4.058,4.058,0,1,0-.83-2.442,4.032,4.032,0,0,0,.157,1.058L9.269,8.672a4.072,4.072,0,1,0,.06,4.951l6.888,3.523a4.026,4.026,0,0,0-.186,1.146,4.076,4.076,0,1,0,4.075-4.076Z" transform="translate(-2.006 0)" fill="#b7d67d"/>
      </g>
      <g id="instagram" transform="translate(1233.936 631.602)">
        <ellipse id="Elipse_1" data-name="Elipse 1" cx="0.856" cy="0.856" rx="0.856" ry="0.856" transform="translate(18.901 5.087)" fill="#b7d67d"/>
        <path id="Caminho_5" data-name="Caminho 5" d="M134.425,128a6.425,6.425,0,1,0,6.425,6.425A6.425,6.425,0,0,0,134.425,128Zm0,10.441a4.016,4.016,0,1,1,4.016-4.016A4.021,4.021,0,0,1,134.425,138.441Z" transform="translate(-121.575 -121.575)" fill="#b7d67d"/>
        <path id="Caminho_4" data-name="Caminho 4" d="M17.669,0H8.031A8.032,8.032,0,0,0,0,8.031v9.638A8.032,8.032,0,0,0,8.031,25.7h9.638A8.032,8.032,0,0,0,25.7,17.669V8.031A8.032,8.032,0,0,0,17.669,0Zm5.622,17.669a5.628,5.628,0,0,1-5.622,5.622H8.031a5.628,5.628,0,0,1-5.622-5.622V8.031A5.628,5.628,0,0,1,8.031,2.409h9.638a5.628,5.628,0,0,1,5.622,5.622Z" transform="translate(0 0)" fill="#b7d67d"/>
      </g>
      <g id="facebook-logo" transform="translate(1174.523 632.043)">
        <path id="Caminho_6" data-name="Caminho 6" d="M34.281,0,31.239,0c-3.417,0-5.626,2.266-5.626,5.772V8.434H22.555a.478.478,0,0,0-.478.479v3.856a.478.478,0,0,0,.478.478h3.058v9.73a.478.478,0,0,0,.478.478h3.99a.478.478,0,0,0,.478-.478v-9.73h3.576a.478.478,0,0,0,.478-.478V8.913a.479.479,0,0,0-.479-.479H30.56V6.178c0-1.084.258-1.635,1.671-1.635H34.28a.478.478,0,0,0,.478-.478V.483A.478.478,0,0,0,34.281,0Z" transform="translate(-22.077)" fill="#b7d67d"/>
      </g>
    </g>
  </g>
</svg>
