<svg id="share" xmlns="http://www.w3.org/2000/svg" width="22.178" height="22.367" viewBox="0 0 22.178 22.367">
  <path id="Caminho_3" data-name="Caminho 3" d="M20.106,14.216a4.049,4.049,0,0,0-3.183,1.562L10,12.238a4.049,4.049,0,0,0,.156-1.055,4.016,4.016,0,0,0-.185-1.143l6.891-3.523a4.058,4.058,0,1,0-.83-2.442,4.032,4.032,0,0,0,.157,1.058L9.269,8.672a4.072,4.072,0,1,0,.06,4.951l6.888,3.523a4.026,4.026,0,0,0-.186,1.146,4.076,4.076,0,1,0,4.075-4.076Z" transform="translate(-2.006 0)" fill="#b7d67d"/>
</svg>
